<?xml version="1.0" encoding="utf-8"?>
<!-- Generator: Adobe Illustrator 16.0.0, SVG Export Plug-In . SVG Version: 6.00 Build 0)  -->
<!DOCTYPE svg PUBLIC "-//W3C//DTD SVG 1.1//EN" "http://www.w3.org/Graphics/SVG/1.1/DTD/svg11.dtd">
<svg version="1.1" id="Icon" xmlns="http://www.w3.org/2000/svg" xmlns:xlink="http://www.w3.org/1999/xlink" x="0px" y="0px"
	 width="960px" height="560px" viewBox="0 0 960 560" enable-background="new 0 0 960 560" xml:space="preserve">
<path d="M741,489.645c0,38.582-31.302,69.871-69.871,69.871H251.852c-38.594,0-69.883-31.301-69.883-69.871V70.367
	c0-38.581,31.29-69.883,69.883-69.883h419.277C709.71,0.484,741,31.786,741,70.367V489.645z"/>
<path d="M541.279,396.871c6.965,18.293,23.298,27.219,43.003,32.771c1.727,9.182,4.387,17.453,4.095,28.652
	c-44.578,14.199-81.818-9.752-94.173-40.938c-130.993,24.523-211.365-56.91-202.685-178.139
	c6.031-84.163,72.543-155.248,161.746-157.64c109.551-2.94,167.872,71.318,167.872,167.884
	C621.137,315.531,588.179,370.119,541.279,396.871z M453.242,124.57c-111.219,5.74-123.609,280.338,22.516,253.879
	c-3.068-19.461-20.72-24.338-38.896-28.666c-2.648-7.582-3.336-17.139-4.096-26.611c38.314-16.846,71.027,13.721,88.025,24.57
	C556.234,274.534,553.938,119.378,453.242,124.57z"/>
<path fill="#FFFFFF" d="M541.279,419.807c6.965,18.293,23.298,27.219,43.003,32.771c1.727,9.182,4.387,17.453,4.095,28.654
	c-44.578,14.197-81.818-9.754-94.173-40.939c-130.993,24.523-211.365-56.91-202.685-178.138
	c6.031-84.163,72.543-155.248,161.746-157.64c109.551-2.94,167.872,71.318,167.872,167.884
	C621.137,338.479,588.179,393.055,541.279,419.807z M453.242,147.519c-111.219,5.729-123.609,280.338,22.516,253.868
	c-3.068-19.461-20.72-24.338-38.896-28.666c-2.648-7.584-3.336-17.139-4.096-26.611c38.314-16.848,71.027,13.719,88.025,24.57
	C556.234,297.482,553.938,142.328,453.242,147.519z"/>
</svg>
