<?xml version="1.0" encoding="utf-8"?>
<!-- Generator: Adobe Illustrator 16.0.0, SVG Export Plug-In . SVG Version: 6.00 Build 0)  -->
<!DOCTYPE svg PUBLIC "-//W3C//DTD SVG 1.1//EN" "http://www.w3.org/Graphics/SVG/1.1/DTD/svg11.dtd">
<svg version="1.1" id="Layer_1" xmlns="http://www.w3.org/2000/svg" xmlns:xlink="http://www.w3.org/1999/xlink" x="0px" y="0px"
	 width="960px" height="560px" viewBox="0 0 960 560" enable-background="new 0 0 960 560" xml:space="preserve">
<path d="M570.279,401.807c6.965,18.293,23.298,27.219,43.003,32.771c1.727,9.182,4.387,17.453,4.095,28.654
	c-44.578,14.197-81.818-9.754-94.173-40.939c-130.993,24.523-211.365-56.91-202.685-178.138
	c6.031-84.163,72.543-155.248,161.746-157.64c109.551-2.94,167.872,71.318,167.872,167.884
	C650.137,320.479,617.179,375.055,570.279,401.807z M482.242,129.519c-111.219,5.729-123.609,280.338,22.516,253.868
	c-3.068-19.461-20.72-24.338-38.896-28.666c-2.648-7.584-3.336-17.139-4.096-26.611c38.314-16.848,71.027,13.719,88.025,24.57
	C585.234,279.482,582.938,124.328,482.242,129.519z"/>
</svg>
