<?xml version="1.0" encoding="utf-8"?>
<!-- Generator: Adobe Illustrator 16.0.0, SVG Export Plug-In . SVG Version: 6.00 Build 0)  -->
<!DOCTYPE svg PUBLIC "-//W3C//DTD SVG 1.1//EN" "http://www.w3.org/Graphics/SVG/1.1/DTD/svg11.dtd">
<svg version="1.1"
	 id="svg2160" xmlns:dc="http://purl.org/dc/elements/1.1/" xmlns:cc="http://web.resource.org/cc/" xmlns:rdf="http://www.w3.org/1999/02/22-rdf-syntax-ns#" xmlns:svg="http://www.w3.org/2000/svg" xmlns:sodipodi="http://sodipodi.sourceforge.net/DTD/sodipodi-0.dtd" xmlns:inkscape="http://www.inkscape.org/namespaces/inkscape" sodipodi:modified="true" inkscape:export-ydpi="960" inkscape:export-xdpi="960" inkscape:export-filename="/home/bertrand/thèmes/icons/skype.png" inkscape:version="0.45" sodipodi:version="0.32" inkscape:output_extension="org.inkscape.output.svg.inkscape" sodipodi:docname="skype.svg" sodipodi:docbase="/home/bertrand/thèmes/icons"
	 xmlns="http://www.w3.org/2000/svg" xmlns:xlink="http://www.w3.org/1999/xlink" x="0px" y="0px" width="48px" height="48px"
	 viewBox="0 0 48 48" enable-background="new 0 0 48 48" xml:space="preserve">
<sodipodi:namedview  showgrid="false" inkscape:cy="25.521167" inkscape:cx="54.109709" inkscape:zoom="5.6568542" borderopacity="1.0" bordercolor="#666666" pagecolor="#ffffff" id="base" inkscape:window-y="53" inkscape:window-x="0" inkscape:window-height="971" inkscape:window-width="1280" inkscape:document-units="px" inkscape:grid-bbox="true" inkscape:current-layer="layer1" inkscape:pageshadow="2" inkscape:pageopacity="0.0">
	</sodipodi:namedview>
<g id="layer1" inkscape:label="Layer 1" inkscape:groupmode="layer">
	
		<linearGradient id="path3225_1_" gradientUnits="userSpaceOnUse" x1="-60.9995" y1="20" x2="-60.9995" y2="-24.0005" gradientTransform="matrix(1 0 0 -1 85 22)">
		<stop  offset="0" style="stop-color:#828282"/>
		<stop  offset="0.72" style="stop-color:#828282"/>
		<stop  offset="1" style="stop-color:#DBDBDB"/>
	</linearGradient>
	<path id="path3225" fill="url(#path3225_1_)" d="M13.5,1C6.6,1,1,6.6,1,13.5c0,2.131,0.527,4.15,1.469,5.906
		C2.154,20.886,2,22.427,2,24c0,12.145,9.856,22,22,22c1.573,0,3.113-0.154,4.594-0.469C30.356,46.481,32.358,47,34.5,47
		C41.4,47,47,41.4,47,34.5c0-2.142-0.519-4.144-1.469-5.906C45.846,27.113,46,25.573,46,24c0-12.144-9.855-22-22-22
		c-1.574,0-3.113,0.186-4.594,0.5C17.649,1.558,15.631,1,13.5,1z"/>
	
		<radialGradient id="path3263_1_" cx="-885.5239" cy="117.6787" r="21.2969" gradientTransform="matrix(-0.1477 -0.6714 -1.7164 0.3775 109.8214 -627.6265)" gradientUnits="userSpaceOnUse">
		<stop  offset="0" style="stop-color:#FFFFFF;stop-opacity:0"/>
		<stop  offset="0.0974" style="stop-color:#FFFFFF;stop-opacity:0"/>
		<stop  offset="0.8593" style="stop-color:#FFFFFF;stop-opacity:0.5556"/>
		<stop  offset="1" style="stop-color:#FFFFFF;stop-opacity:0.6296"/>
	</radialGradient>
	<path id="path3263" sodipodi:nodetypes="csccccssscsc" fill="url(#path3263_1_)" d="M13.5,2C7.152,2,2,7.152,2,13.5
		c0,2.102,0.577,4.054,1.562,5.75c-0.862,3.276-0.577,6.579,0.063,9.857c3.888-1.468,12.066-4.831,17.625-6.231
		c6.857-1.551,14.374-2.42,21.4-2.842c-1.375-4.19-2.115-10.073-5.504-12.878C33.756,4.351,29.094,3,24,3
		c-0.818,0-1.624,0.052-2.415,0.148c-0.792,0.096-1.57,0.237-2.335,0.414c-0.848-0.493-1.76-0.884-2.723-1.151
		C15.564,2.144,14.551,2,13.5,2z"/>
	<path id="path3254" fill="#828282" fill-opacity="0.5137" d="M13.5,3C7.704,3,3,7.704,3,13.5c0,2.067,0.592,3.999,1.625,5.625
		C4.232,20.689,4,22.315,4,24c0,11.04,8.96,20,20,20c1.686,0,3.311-0.232,4.875-0.625C30.5,44.408,32.433,45,34.5,45
		C40.296,45,45,40.296,45,34.5c0-2.067-0.592-3.999-1.625-5.625C43.768,27.311,44,25.686,44,24c0-11.04-8.96-20-20-20
		c-1.685,0-3.311,0.232-4.875,0.625C17.5,3.592,15.567,3,13.5,3z M13.5,4c2.008,0,3.872,0.623,5.406,1.688
		C20.528,5.236,22.234,5,24,5c10.488,0,19,8.512,19,19c0,1.766-0.236,3.472-0.688,5.094C43.377,30.629,44,32.492,44,34.5
		c0,5.244-4.256,9.5-9.5,9.5c-2.008,0-3.871-0.623-5.406-1.688C27.472,42.764,25.766,43,24,43C13.512,43,5,34.488,5,24
		c0-1.766,0.236-3.472,0.688-5.094C4.623,17.372,4,15.508,4,13.5C4,8.256,8.256,4,13.5,4z"/>
	<path id="path3206" fill="#828282" d="M13.5,1C6.6,1,1,6.6,1,13.5c0,2.131,0.527,4.15,1.469,5.906C2.154,20.886,2,22.427,2,24
		c0,12.145,9.856,22,22,22c1.573,0,3.113-0.154,4.594-0.469C30.356,46.481,32.358,47,34.5,47C41.4,47,47,41.4,47,34.5
		c0-2.142-0.519-4.144-1.469-5.906C45.846,27.113,46,25.573,46,24c0-12.144-9.855-22-22-22c-1.574,0-3.113,0.186-4.594,0.5
		C17.649,1.558,15.631,1,13.5,1z M13.5,2c2.102,0,4.054,0.577,5.75,1.562C20.779,3.208,22.363,3,24,3c11.592,0,21,9.408,21,21
		c0,1.624-0.182,3.201-0.531,4.719C45.452,30.413,46,32.401,46,34.5C46,40.848,40.848,46,34.5,46c-2.088,0-4.03-0.588-5.719-1.562
		C27.243,44.797,25.646,45,24,45C12.408,45,3,35.592,3,24c0-1.642,0.206-3.247,0.562-4.781C2.588,17.53,2,15.588,2,13.5
		C2,7.152,7.152,2,13.5,2z"/>
	<path id="path3337" fill="#FFFFFF" d="M23.594,10.109c-6.875,0-10.938,3.094-10.938,8.406c0,5.779,7.533,7.271,12.188,7.906
		c4.357,1.168,4.5,1.847,4.5,3.75c0,2.372-2.995,3.281-5.031,3.281c-6.147,0-5.693-4.469-8.969-4.469c-1.688,0-2.5,0.562-2.5,2.688
		s4.375,6.219,11.25,6.219s11.25-2.656,11.25-7.969c0-5.469-4.525-7.086-10.5-8.688c-3.974-0.965-6.188-1.659-6.188-3.562
		c0-2.372,2.526-3.281,4.562-3.281c6.146,0,4.787,3.938,8.062,3.938c1.688,0,2.719-0.344,2.719-2.469S30.469,10.109,23.594,10.109z"
		/>
	<path id="path3356" fill="#828282" fill-opacity="0.4241" d="M23.594,9.125c-3.587,0-6.546,0.789-8.656,2.406
		s-3.281,4.058-3.281,6.969c0,3.324,2.258,5.55,4.906,6.812c2.606,1.242,5.686,1.739,8.031,2.062
		c0.038,0.006,0.088,0.026,0.125,0.031c1.986,0.547,3.009,1.055,3.312,1.344c0.157,0.15,0.203,0.236,0.25,0.438
		s0.062,0.506,0.062,0.969c0,0.766-0.414,1.236-1.219,1.656s-1.943,0.656-2.812,0.656c-2.831,0-3.857-0.901-4.844-1.938
		c-0.494-0.518-0.929-1.108-1.562-1.625S16.39,28,15.344,28c-0.955,0-1.903,0.135-2.594,0.812s-0.906,1.686-0.906,2.875
		c0,0.875,0.399,1.676,1,2.469s1.441,1.551,2.5,2.25c2.118,1.398,5.114,2.469,8.75,2.469c3.566,0,6.557-0.664,8.75-2.156
		s3.5-3.851,3.5-6.781c0-3.01-1.361-5.201-3.438-6.625s-4.805-2.225-7.812-3.031V20.25c-1.975-0.479-3.491-0.896-4.375-1.344
		c-0.442-0.224-0.731-0.44-0.875-0.625s-0.188-0.312-0.188-0.594c0-0.831,0.359-1.291,1.031-1.688s1.662-0.625,2.531-0.625
		c2.859,0,3.598,0.748,4.344,1.625c0.373,0.438,0.711,0.978,1.281,1.469s1.418,0.844,2.438,0.844c0.912,0,1.816-0.042,2.594-0.625
		S35,17.068,35,15.844c0-1.616-1.136-3.204-3.062-4.5S27.207,9.125,23.594,9.125z M23.594,10.125c6.875,0,10.406,3.625,10.406,5.75
		s-1.031,2.438-2.719,2.438c-3.275,0-1.916-3.938-8.062-3.938c-2.036,0-4.562,0.94-4.562,3.312c0,1.903,2.213,2.598,6.188,3.562
		c5.975,1.601,10.5,3.218,10.5,8.688c0,5.312-4.375,7.938-11.25,7.938s-11.25-4.062-11.25-6.188S13.656,29,15.344,29
		c3.275,0,2.822,4.438,8.969,4.438c2.036,0,5.031-0.878,5.031-3.25c0-1.903-0.143-2.582-4.5-3.75
		c-4.655-0.635-12.188-2.159-12.188-7.938C12.656,13.188,16.719,10.125,23.594,10.125z"/>
</g>
</svg>
